<?xml version="1.0" standalone="no"?>
<!DOCTYPE svg PUBLIC "-//W3C//DTD SVG 20010904//EN"
 "http://www.w3.org/TR/2001/REC-SVG-20010904/DTD/svg10.dtd">
<svg version="1.0" xmlns="http://www.w3.org/2000/svg"
 width="512.000000pt" height="512.000000pt" viewBox="0 0 512.000000 512.000000"
 preserveAspectRatio="xMidYMid meet">
<metadata>
Created by potrace 1.14, written by Peter Selinger 2001-2017
</metadata>
<g transform="translate(0.000000,512.000000) scale(0.100000,-0.100000)"
fill="#000000" stroke="none">
<path d="M1162 3370 c-309 -43 -548 -260 -633 -575 -30 -109 -33 -347 -5 -445
85 -307 345 -540 666 -596 159 -28 408 -3 560 55 84 32 84 32 63 77 -9 21 -18
40 -18 41 -1 1 -41 -11 -90 -26 -173 -56 -435 -66 -570 -23 -174 55 -322 173
-414 330 -65 109 -83 178 -88 327 -6 165 10 247 73 374 88 179 249 308 429
346 129 27 348 12 546 -39 52 -13 97 -21 100 -17 10 10 32 82 26 87 -2 3 -35
14 -73 25 -168 48 -443 77 -572 59z"/>
<path d="M2465 3334 c-149 -36 -236 -136 -243 -281 -3 -49 1 -87 13 -123 20
-62 112 -201 186 -284 l53 -59 -24 -16 c-57 -37 -172 -135 -216 -184 -26 -28
-61 -81 -78 -117 -26 -55 -31 -79 -34 -162 -4 -86 -2 -102 20 -150 35 -76 78
-120 150 -155 89 -43 157 -57 278 -56 164 1 317 52 453 149 26 19 51 34 56 34
5 0 43 -36 83 -80 l73 -80 68 0 c37 0 67 3 67 8 0 4 -47 58 -105 121 -58 63
-105 117 -105 120 0 4 17 41 38 83 36 71 53 131 67 236 l5 42 -49 0 -49 0 -7
-42 c-18 -124 -56 -233 -80 -233 -6 0 -108 104 -227 230 l-217 230 42 34 c23
19 88 81 145 137 120 120 154 180 160 286 10 159 -90 281 -256 317 -71 15
-193 13 -267 -5z m307 -121 c101 -57 134 -171 83 -282 -30 -63 -140 -178 -232
-239 l-61 -41 -67 70 c-115 122 -165 217 -165 313 1 144 106 220 297 212 79
-3 98 -7 145 -33z m5 -952 c120 -129 219 -240 221 -246 4 -17 -134 -108 -203
-134 -94 -35 -182 -45 -282 -32 -153 19 -237 79 -270 190 -28 99 3 203 90 299
51 55 195 164 213 160 7 -2 110 -108 231 -237z"/>
<path d="M3440 3301 c0 -35 4 -51 16 -55 9 -3 128 -6 265 -6 l249 0 0 -735 0
-735 60 0 60 0 0 738 0 737 242 -3 c134 -2 253 0 266 3 19 5 22 12 22 55 l0
50 -590 0 -590 0 0 -49z"/>
</g>
</svg>
